<svg xmlns="http://www.w3.org/2000/svg" width="192" height="192" fill="none" stroke="#000" stroke-linecap="round" viewBox="120 120 192 192"><path
        fill="#000000"
        d="M192.69,166.96C195.98,166.58 198.34,163.6 197.96,160.31C197.58,157.02 194.6,154.66 191.31,155.04L157.02,159C143.9,160.51 134,171.62 134,184.82V247.18C134,260.38 143.9,271.49 157.02,273L191.31,276.96C194.6,277.34 197.58,274.98 197.96,271.69C198.34,268.4 195.98,265.42 192.69,265.04L158.4,261.08C151.33,260.27 146,254.29 146,247.18V184.82C146,177.71 151.33,171.73 158.4,170.92L192.69,166.96Z"
        fill-rule="evenodd" />
    <path
        fill="#000000"
        d="M239.31,166.96C236.02,166.58 233.66,163.6 234.04,160.31C234.42,157.02 237.4,154.66 240.69,155.04L274.98,159C288.1,160.51 298,171.62 298,184.82V247.18C298,260.38 288.1,271.49 274.98,273L240.69,276.96C237.4,277.34 234.42,274.98 234.04,271.69C233.66,268.4 236.02,265.42 239.31,265.04L273.61,261.08C280.67,260.27 286,254.29 286,247.18V184.82C286,177.71 280.67,171.73 273.61,170.92L239.31,166.96Z"
        fill-rule="evenodd" />
    <path fill="#000000"
    stroke-opacity="0.62"
    fill-opacity="0.62"
        d="M186,216C186,212.69 188.69,210 192,210H240C243.31,210 246,212.69 246,216C246,219.31 243.31,222 240,222H192C188.69,222 186,219.31 186,216Z"
        fill-rule="evenodd" /></svg>