<svg xmlns="http://www.w3.org/2000/svg" width="192" height="192" fill="none" stroke="#000" stroke-linecap="round" viewBox="120 120 192 192">
    <path fill="#000000"
    stroke-opacity="0.62"
    fill-opacity="0.62"
        d="M158.64,220.58C159.77,217.46 158.17,214.02 155.05,212.88C151.94,211.75 148.49,213.36 147.36,216.47L135.8,248.24C131.64,259.66 137.53,272.28 148.95,276.44L152.21,277.62C155.32,278.76 158.77,277.15 159.9,274.04C161.03,270.92 159.43,267.48 156.31,266.35L153.05,265.16C147.86,263.27 145.19,257.53 147.08,252.34L158.64,220.58Z"
    />
    <path fill="#000000"
    stroke-opacity="0.62"
    fill-opacity="0.62"
    d="M172.36,220.29C172.25,216.98 169.47,214.39 166.16,214.5C162.85,214.62 160.26,217.4 160.37,220.71L162.14,271.28C162.56,283.42 172.75,292.92 184.89,292.5L193.21,292.21C196.52,292.09 199.11,289.32 199,286C198.88,282.69 196.1,280.1 192.79,280.22L184.47,280.51C178.95,280.7 174.32,276.38 174.13,270.86L172.36,220.29Z"
    />
    <path
        fill="#000000"
        d="M197.17,193.41C200.75,191.96 202.48,187.88 201.03,184.3C199.59,180.71 195.51,178.98 191.92,180.43C188.34,181.88 186.61,185.96 188.05,189.54C189.5,193.13 193.58,194.86 197.17,193.41Z"
        />
        <path
        fill="#000000"
        d="M174.59,161.55C163.32,166.1 157.88,178.92 162.43,190.19L201.39,286.61C205.94,297.88 218.76,303.32 230.03,298.77L285.66,276.3C296.92,271.74 302.37,258.92 297.82,247.66L258.86,151.23C254.31,139.96 241.48,134.52 230.22,139.07L174.59,161.55ZM173.56,185.69C171.49,180.57 173.96,174.74 179.08,172.68L234.71,150.2C239.83,148.13 245.66,150.6 247.73,155.72L286.69,252.15C288.76,257.27 286.29,263.1 281.16,265.17L225.53,287.65C220.41,289.71 214.58,287.24 212.51,282.12L173.56,185.69Z"
        fill-rule="evenodd" /></svg>
