<svg xmlns="http://www.w3.org/2000/svg" width="192" height="192" fill="none" stroke="#000" stroke-linecap="round" viewBox="0 0 1024 1024"><path d="M917.615709 431.811491H800.023273v41.946764h117.573818v-41.946764z m60.025018-29.882182V607.232c0 16.849455-8.545745 29.230545-32.674909 29.230545H589.935709c-16.570182 0-30.012509-13.665745-30.012509-30.5152V401.296291c0-16.849455 13.442327-30.496582 30.012509-30.496582h357.692509c16.570182 0 30.012509 13.647127 30.012509 30.496582v0.633018z m-60.025018 173.521455v-40.680728H800.023273v40.680728h117.573818z m-177.598836-143.639273H619.985455v41.946764h120.050036v-41.946764z m0 143.639273v-40.680728H619.985455v40.680728h120.050036z m176.351418-260.580073H618.682182v3.798109c0 16.849455-13.423709 30.5152-30.012509 30.5152-16.570182 0-30.012509-13.665745-30.012509-30.5152v-34.313309c0-16.849455 13.442327-30.5152 30.012509-30.5152h357.692509c16.570182 0 30.012509 13.665745 30.012509 30.5152v34.313309c0 16.849455-13.442327 30.5152-30.012509 30.5152-16.570182 0-30.012509-13.665745-30.012509-30.5152v-3.798109z m-480.256-38.148655c16.570182 0 30.012509 13.665745 30.012509 30.5152v395.841164c0 16.849455-13.423709 30.5152-30.012509 30.5152-16.570182 0-30.012509-13.665745-30.012509-30.5152V481.373091h-118.802618v221.705309c0 16.849455-13.442327 30.5152-30.012509 30.5152-16.570182 0-30.031127-13.665745-30.031128-30.5152V481.373091H107.203491v221.705309c0 16.849455-13.442327 30.5152-30.012509 30.5152-16.570182 0-30.012509-13.665745-30.012509-30.5152V307.237236c0-16.849455 13.423709-30.5152 30.012509-30.5152 16.570182 0 30.012509 13.665745 30.012509 30.5152v113.124073h120.050036v-10.165527c0-16.849455 13.442327-30.496582 30.031128-30.496582 16.570182 0 30.012509 13.647127 30.012509 30.496582v10.165527h118.802618v-82.608873h-158.813091c-16.5888 0-30.031127-13.665745-30.031127-30.5152s13.442327-30.5152 30.012509-30.5152h188.844218zM167.228509 553.835055c16.570182 0 30.012509 13.665745 30.012509 30.5152v118.728145c0 16.849455-13.442327 30.5152-30.012509 30.5152-16.570182 0-30.012509-13.665745-30.012509-30.5152v-118.728145c0-16.849455 13.442327-30.5152 30.012509-30.5152z m-5.008291-299.994764c16.570182 0 30.031127 13.665745 30.031127 30.5152v34.313309c0 16.849455-13.442327 30.5152-30.031127 30.5152-16.570182 0-30.012509-13.665745-30.012509-30.5152v-34.313309c0-16.849455 13.442327-30.5152 30.012509-30.5152z m183.854546 299.994764c16.570182 0 30.012509 13.665745 30.012509 30.5152v118.728145c0 16.849455-13.442327 30.5152-30.012509 30.5152-16.570182 0-30.012509-13.665745-30.012509-30.5152v-118.728145c0-16.849455 13.423709-30.5152 30.012509-30.5152zM549.422545 681.146182c52.950109-31.967418 121.707055-38.018327 205.395782-19.679418l9.718691 2.234181c75.180218 17.910691 132.840727 14.894545 173.577309-7.46589a28.429964 28.429964 0 0 1 27.368728 49.840872c-52.708073 28.914036-120.906473 33.512727-204.073891 15.229673l-10.053819-2.290036c-74.807855-17.836218-132.002909-13.665745-172.571927 10.798545a28.429964 28.429964 0 1 1-29.379491-48.667927z" fill="#000000" /></svg>
