<svg xmlns="http://www.w3.org/2000/svg" width="192" height="192" fill="none" stroke="#000" stroke-linecap="round" viewBox="120 120 192 192"><path
        fill="#000000"
        d="M157.08,157.08C169.47,144.7 188.99,141 216,141C243.01,141 262.53,144.7 274.92,157.08C287.3,169.47 291,188.99 291,216C291,243.01 287.3,262.53 274.92,274.92C262.53,287.3 243.01,291 216,291C188.99,291 169.47,287.3 157.08,274.92C144.7,262.53 141,243.01 141,216C141,188.99 144.7,169.47 157.08,157.08ZM165.57,165.57C156.9,174.24 153,189.21 153,216C153,242.79 156.9,257.77 165.57,266.43C174.24,275.1 189.21,279 216,279C242.79,279 257.77,275.1 266.43,266.43C275.1,257.77 279,242.79 279,216C279,189.21 275.1,174.24 266.43,165.57C257.77,156.9 242.79,153 216,153C189.21,153 174.24,156.9 165.57,165.57Z"
        fill-rule="evenodd" />
    <path fill="#000000"
    stroke-opacity="0.62"
    fill-opacity="0.62"
        d="M234.74,202.7C237.33,200.63 237.76,196.86 235.7,194.26C233.63,191.67 229.86,191.24 227.26,193.3L215.1,202.98C207.05,209.38 207.05,221.62 215.1,228.02L227.26,237.7C229.86,239.76 233.63,239.33 235.7,236.74C237.76,234.14 237.33,230.37 234.74,228.3L222.57,218.63C220.56,217.03 220.56,213.97 222.57,212.37L234.74,202.7Z"
        fill-rule="evenodd" />
    <path fill="#000000"
    stroke-opacity="0.62"
    fill-opacity="0.62"
        d="M209,198C209,194.69 206.31,192 203,192C199.69,192 197,194.69 197,198V234C197,237.31 199.69,240 203,240C206.31,240 209,237.31 209,234V198Z"
        fill-rule="evenodd" /></svg>
