<svg xmlns="http://www.w3.org/2000/svg" width="192" height="192" fill="none" stroke="#000" stroke-linecap="round" viewBox="120 120 192 192"><path
        fill="#000000"
        stroke-opacity="0.62"
        fill-opacity="0.62"
        d="M203,206C206.31,206 209,203.31 209,200C209,196.69 206.31,194 203,194H150C146.69,194 144,196.69 144,200C144,203.31 146.69,206 150,206L203,206Z"/>
    <path fill="#000000"
    stroke-opacity="0.62"
    fill-opacity="0.62"
        d="M282,206C285.31,206 288,203.31 288,200C288,196.69 285.31,194 282,194H229C225.69,194 223,196.69 223,200C223,203.31 225.69,206 229,206L282,206Z"/>
        <path
        fill="#000000"
        d="M216,181C205.51,181 197,189.51 197,200C197,210.49 205.51,219 216,219C226.49,219 235,210.49 235,200C235,189.51 226.49,181 216,181ZM209,200C209,196.13 212.13,193 216,193C219.87,193 223,196.13 223,200C223,203.87 219.87,207 216,207C212.13,207 209,203.87 209,200Z"
        fill-rule="evenodd" />
    <path fill="#000000"
        d="M170,144C155.64,144 144,155.64 144,170V262C144,276.36 155.64,288 170,288H262C276.36,288 288,276.36 288,262V170C288,155.64 276.36,144 262,144H170ZM156,170C156,162.27 162.27,156 170,156H262C269.73,156 276,162.27 276,170V262C276,269.73 269.73,276 262,276H170C162.27,276 156,269.73 156,262V170Z"
        fill-rule="evenodd" /></svg>
