<svg xmlns="http://www.w3.org/2000/svg" width="192" height="192" fill="none" stroke="#000" stroke-linecap="round" viewBox="120 120 192 192">
    <path fill="#000000"
        stroke-opacity="0.62"
        fill-opacity="0.62"
        d="M287.46,153.56C290.11,152.56 292,150 292,147C292,143.13 288.87,140 285,140C282.06,140 279.54,141.82 278.5,144.39C277.12,146.55 276.13,149.34 275.46,151.8C274.6,154.95 274,158.62 274,162C274,165.31 276.69,168 280,168C283.31,168 286,165.31 286,162C286,159.91 286.4,157.32 287.04,154.95C287.17,154.46 287.31,153.99 287.46,153.56Z" />
    <path fill="#000000"
        stroke-opacity="0.62"
        fill-opacity="0.62"
        d="M261.17,159.72C262.3,158.48 263,156.82 263,155C263,151.13 259.87,148 256,148C252.5,148 249.6,150.57 249.08,153.92C248.33,157.15 248.94,160.62 249.73,163.39C250.63,166.56 252.08,169.86 253.74,172.89C255.33,175.79 258.98,176.85 261.89,175.26C264.79,173.67 265.85,170.02 264.26,167.11C262.92,164.67 261.87,162.21 261.27,160.11C261.23,159.98 261.2,159.85 261.17,159.72Z"  />
    <path fill="#000000"
        stroke-opacity="0.62"
        fill-opacity="0.62"
        d="M140,228C140,198.73 163.73,175 193,175C222.27,175 246,198.73 246,228C246,257.27 222.27,281 193,281C163.73,281 140,257.27 140,228ZM193,187C170.36,187 152,205.36 152,228C152,250.64 170.36,269 193,269C215.64,269 234,250.64 234,228C234,205.36 215.64,187 193,187Z"  />
        <path fill="#000000"
        d="M274,188C267.37,188 262,193.37 262,200C262,200 262,200.01 262,200.05C262,200.09 262,200.15 262,200.21C262.01,200.34 262.01,200.53 262.02,200.74C262.02,201.17 262.03,201.73 262.03,202.41C262.03,203.76 261.99,205.56 261.86,207.71C261.58,212.01 260.89,217.74 259.25,224.2C255.97,237.11 248.82,253.07 233.37,266.09C222.18,275.51 208.15,281.17 191.44,281C181.41,280.9 171.44,279.36 163.33,278.11C161.46,277.82 159.69,277.55 158.03,277.31C157.62,277.25 157.21,277.19 156.81,277.14C161.56,278.73 167.39,280.09 173.63,280.75C185.67,282.02 198.87,282.08 211.1,280.63C223.41,279.17 234.29,276.23 242.01,271.8C254.66,264.54 260.74,251.66 263.86,239.67C265.41,233.73 266.17,228.25 266.69,224.1C266.74,223.7 266.79,223.31 266.84,222.92C267.03,221.37 267.21,219.92 267.39,218.84C267.5,218.2 267.67,217.29 267.98,216.45C268.12,216.06 268.43,215.26 269.06,214.44C269.69,213.63 271.31,212 274,212C280.63,212 286,206.63 286,200C286,193.37 280.63,188 274,188ZM146.24,271.86C146.24,271.86 146.24,271.86 146.25,271.87C146.24,271.86 146.24,271.86 146.24,271.86ZM145.56,276.71C145.54,276.71 145.54,276.72 145.54,276.72C145.54,276.72 145.54,276.71 145.56,276.71ZM250,200C250,186.74 260.75,176 274,176C287.26,176 298,186.74 298,200C298,211.59 289.78,221.26 278.86,223.51C278.83,223.73 278.8,223.96 278.77,224.21C278.72,224.63 278.66,225.1 278.6,225.6C278.06,229.88 277.22,235.98 275.47,242.69C272.01,255.98 264.72,272.6 247.99,282.2C238.3,287.76 225.62,290.99 212.51,292.55C199.31,294.11 185.21,294.04 172.37,292.68C162.43,291.63 153.22,289.02 146.65,286.04C143.42,284.57 140.45,282.86 138.34,280.92C137.31,279.98 136.12,278.64 135.4,276.91C134.6,274.96 134.4,272.39 135.83,269.95C138.51,265.41 143.63,264.59 146.96,264.43C150.68,264.25 155.18,264.77 159.74,265.43C161.61,265.7 163.53,265.99 165.5,266.3C173.59,267.54 182.48,268.91 191.56,269C205.28,269.14 216.54,264.57 225.64,256.91C250.67,235.83 250.1,205.5 250.01,200.51C250,200.29 250,200.12 250,200Z"
    /></svg>