<svg xmlns="http://www.w3.org/2000/svg" width="192" height="192" fill="none" stroke="#000" stroke-linecap="round" viewBox="120 120 192 192">
    <path fill="#000000"
    stroke-opacity="0.62"
    fill-opacity="0.62"
        d="M204,146C207.31,146 210,148.69 210,152C210,153.58 209.58,155.26 209.08,156.74C208.54,158.34 207.76,160.14 206.7,162.07C204.59,165.93 201.33,170.43 196.61,174.87C187.61,183.35 181.29,186.44 176.65,187.77C173.46,188.68 170.14,186.84 169.23,183.65C168.32,180.46 170.16,177.14 173.35,176.23C175.71,175.56 180.39,173.65 188.39,166.13C192.17,162.57 194.66,159.07 196.17,156.31C196.93,154.92 197.43,153.76 197.71,152.9C197.95,152.19 198,151.86 198,151.86C198,151.86 198,151.86 198,151.87C198.07,148.61 200.73,146 204,146Z" />
    <path fill="#000000"
        d="M222,146C218.69,146 216,148.69 216,152C216,155.31 218.69,158 222,158C244.64,158 263,176.36 263,199C263,221.64 244.64,240 222,240H193C189.69,240 187,242.69 187,246C187,249.31 189.69,252 193,252H222C251.27,252 275,228.27 275,199C275,169.73 251.27,146 222,146Z"  />
        <path fill="#000000"
        d="M181,200C181,196.69 178.31,194 175,194C171.69,194 169,196.69 169,200V292C169,295.31 171.69,298 175,298C178.31,298 181,295.31 181,292V200Z"
    /></svg>