<svg xmlns="http://www.w3.org/2000/svg" width="192" height="192" fill="none" stroke="#000" stroke-linecap="round" stroke-width="40" viewBox="62 62 900 900">
<path d="M378.16 247.18c50.63-13.01 104.6-18.85 156.07-7.43 34.22 8.72 67.74 23.18 94.8 46.24 23.76 19.95 40.63 50.45 37.14 82.06 0.33 16.27-4.98 32-11.45 46.71 24.54 12 47.3 27.66 67.54 45.98 23.61 21.52 40.31 49.28 53.97 77.87 4.51 11.42 10.58 22.1 16.22 32.99 9.37 15.84 18.11 34.04 35.41 42.56 10.33 3.37 20.88 6.07 31.38 6.45 8.86 1.54 9.04 13.47 5.13 19.72-10.86 25.13-33.36 42.6-57.07 54.89-4.88 1.67-5.58 7.2-7.95 11.11-15.11 34.39-44.36 60.95-77.64 77.41-19.43 12.27-43.51 12.11-65.7 12.39-11.07 0.8-22.94-4.2-33.3 1.62-64.08 23.15-135.49 24.29-200.64 4.5-35.71 9.31-73.43-0.08-106.25-15.05-31.21-15.79-56.69-41.39-74.98-70.99-25.41-0.69-52.26-11.85-65.58-34.47-3.3-6.32-7.06-13.26-6.14-20.61 1.34-5.16 6.98-7.72 11.92-7.95 14.55-0.39 27.11-9.18 37.19-18.95 15.08-17.61 25.81-38.75 31.94-61.06 2.58-15.89 6.96-31.5 13.18-46.34-22.94-17.41-42.59-41.87-47.38-70.85-0.17-0.5-0.5-1.52-0.67-2.02-9.35-46.83 11.31-94.75 42.45-129.19 31.73-36.55 74.81-62.15 120.41-77.59m85.28-4.53c-35.51 2.32-71.93 6.23-104.72 21.11-50.82 21.38-96.88 57.78-122.57 107.3-9.02 19.29-15.09 40.47-13.96 61.94-1.63 33.88 17.8 66.01 44.75 85.36 6.71-13.29 13.72-26.5 22.93-38.26-13.68-22.16 1.14-48.21 14.45-66.75 37.39-47.79 95.29-79.01 155.67-84.61 42.63-1.85 87.57 5.36 123.41 29.85 11.21 8.77 23.19 20.97 21.86 36.39 14.14 4.15 27.96 9.47 41.22 15.92 15.14-28.87 16.7-66.86-1.9-94.54-13.89-21.06-34.9-36.36-57.08-47.79-25.48-12.47-52.69-22.51-81.17-24.84-14.26-0.91-28.58-2.27-42.89-1.08m-6.13 94.69c-27.11 2.27-53.27 11.27-77.32 23.73-31.13 16.83-59.85 40.17-78.08 70.88-7.08 12.36-12.73 27.78-6.59 41.66 2.77 1.34 4.26-1.65 6.15-3.14 59.79-57.38 143.18-92.16 226.53-86.34 23.29 0.76 46.22 5.53 69.18 9.19 0.18-10.98-8.09-19.88-16.18-26.3-35.33-25.55-81.02-32.62-123.69-29.68m-19.21 63.73c-48.77 14.17-94.39 39.68-130.9 75.14-3.06 3.79-8.36 4.86-10.91 9.13-19.63 26.39-32.91 57.56-38.06 90.06-3.63 13.33-8.93 26.2-15.53 38.33-10.95 19.78-26.73 39.2-49.26 45.77-5.32 1.96-11.17 1.47-16.48 3.4 4.36 21.74 24.23 37.66 45.27 42.09 7.91 2.58 16.33 2.33 24.39 4.04 20.74 35.86 53.62 65.89 93.34 79.02 15.58 6.34 32.48 7.87 49.04 9.7 8.8 0.06 18 0 26.34-3.11-23.23-7.93-46.58-17.46-65.43-33.53-3.71-2.69 0.28-7.52 4.02-6.87 8.66 0.25 17.43-0.94 25.42-4.4-8.98-6.58-18.76-12.52-25.65-21.47-10.3-12.35-13.11-28.8-15.95-44.15-0.06-5.82-0.08-11.63-0.02-17.44 10.05-47.98 40.66-90.37 79.71-119.31 6.01-4.56 9.96 4.27 12.69 8.37 16.85 25.09 34.51 51.11 60.46 67.6 13.58 9.3 27.6 18.6 43.47 23.48 7.71-23.15 9.05-47.81 11.3-71.94-0.02-4.42 0.16-11.8 6.18-11.48 23.92 26.83 50.14 52.39 81.48 70.48 14.36 7.71 30.31 14.57 46.98 12.9 2.6-0.25 6.34-0.41 7.24 2.74 5.21 18.22 4.36 37.99-1.76 55.88-8.34 15.76-19.07 31.95-35.6 39.95 7.07 7.06 17.27 8.93 26.8 9.93 1.98 2.14 2.28 6.28-0.63 7.69-12.19 9.33-25.63 16.79-39.61 23.07 18.54 1.61 37.42 1.91 55.91-0.75 14.61 0.04 26.24-10.2 38.85-16.18 20-13.49 40.06-28.65 52.03-50.12 7.65-10.73 8.93-27.07 22.41-32.48 15.49-8.83 31.58-18.09 41.83-33.18 4.67-7.55 10.73-15.15 11.01-24.41-11.69-0.49-23.23-3.2-34.12-7.38-15.33-6.93-25.25-21.5-33.24-35.7-12.7-21.06-22.35-43.72-33.43-65.63-8.29-16.59-20.76-30.47-31.83-45.16-34.49-33.28-76.84-58.35-122.7-72.34-54.03-11.5-111.11-16.75-165.06-1.74m-88.14 249.95c-8.05 20.66-4.13 43.87 4.19 63.78 3.02 6.06 7.75 11.03 12.62 15.65 7.77 6.48 16.03 12.35 24.91 17.24 1.6 8.52-10.09 9.4-15.94 12.01-3.82 0.61-7.58 1.54-11.37 2.32 20.46 14.79 44.66 22.78 68.57 29.98 3.91 0.86-0.08 7.39 5.02 6.21 56.22 13.87 116.21 13.17 171.5-4.61 5.17 0.38 0.28-6.52 4.65-7.45 17.66-6.16 35.17-13.65 50.31-24.8-3.96-0.49-7.52-2.29-11.22-3.6-5.25-4.15-18-9.48-12.99-17.52 7.49-1.62 14.6-5.64 19.15-11.88 7.71-6.88 14-16.68 18.81-26.2 5.25-15.02 4.95-31.44 2.54-46.99-26.77 1.21-51.2-12.48-72.29-27.54-20.38-14.45-37.84-32.36-55.27-50.11-2.2 23.94-3.92 48.29-11.37 71.31-1.04 4.63-5.53 7.65-10.12 5.58-21.22-6.53-39.45-19.99-57.41-32.64-22.23-18.28-38.18-42.65-54.14-66.27-32.21 23.85-56.94 57.7-70.15 95.53z" ></path>
<path d="M337.75 684.22c-0.58-5.79-0.63-11.66-0.02-17.44-0.06 5.81-0.04 11.62 0.02 17.44z" ></path>
<path d="M215.3 453.96c0.17 0.5 0.5 1.52 0.67 2.02-0.17-0.5-0.5-1.52-0.67-2.02z" ></path>
</svg>